<svg width="23" height="24" viewBox="0 0 23 24" fill="none" xmlns="http://www.w3.org/2000/svg">
<path d="M11.5 1.875C11.8978 1.875 12.2794 2.03304 12.5607 2.31434C12.842 2.59564 13 2.97718 13 3.375V9.5955L21.25 14.3107V15.1973L13 13.4295V18.777L15.25 20.2762V21.834L11.5 20.5845L7.75 21.834V20.2755L10 18.7755V13.4295L1.75 15.1965V14.31L10 9.5955V3.375C10 2.97718 10.158 2.59564 10.4393 2.31434C10.7206 2.03304 11.1022 1.875 11.5 1.875ZM11.35 0.37875C10.5813 0.417234 9.85676 0.749704 9.32629 1.30739C8.79583 1.86508 8.5 2.60532 8.5 3.375V8.724L0.7225 13.17L0.64 13.2247L0.60025 13.2548L0.52525 13.32C0.437976 13.4071 0.36874 13.5106 0.321509 13.6245C0.274277 13.7384 0.249977 13.8604 0.25 13.9838V15.8932L0.25525 15.9788L0.25975 16.0223L0.27475 16.107C0.322965 16.3129 0.439377 16.4965 0.605076 16.6278C0.770776 16.7592 0.97603 16.8307 1.1875 16.8307L1.2475 16.8285L1.345 16.8172L8.5 15.2843V17.973L6.667 19.1955L6.5935 19.2518L6.55825 19.2817L6.49225 19.3463C6.33626 19.5187 6.24992 19.743 6.25 19.9755V22.6155L6.25525 22.701L6.25975 22.7438L6.27475 22.8293C6.32311 23.035 6.43958 23.2184 6.60527 23.3496C6.77096 23.4809 6.97613 23.5523 7.1875 23.5522L7.288 23.547C7.35459 23.5398 7.42021 23.5255 7.48375 23.5042L11.5 22.1647L15.5162 23.5042L15.613 23.5297L15.6625 23.5387L15.763 23.5507C15.8901 23.5575 16.0172 23.5382 16.1366 23.4942C16.2561 23.4502 16.3653 23.3824 16.4576 23.2948C16.5499 23.2072 16.6235 23.1018 16.6738 22.9849C16.724 22.8679 16.75 22.742 16.75 22.6147V19.9748L16.744 19.8825L16.7388 19.8375L16.7215 19.746L16.6915 19.6515C16.623 19.4653 16.4972 19.3057 16.3323 19.1955L14.5 17.973V15.2843L21.616 16.8097L21.7008 16.8232L21.7443 16.827L21.8305 16.8307C22.0419 16.8266 22.2457 16.7512 22.4088 16.6167C22.5719 16.4822 22.6847 16.2965 22.729 16.0897L22.7448 15.9923C22.7477 15.9675 22.7485 15.9427 22.75 15.8932V13.9838L22.7432 13.8848L22.7372 13.8353L22.717 13.7377L22.684 13.638C22.6055 13.4404 22.4621 13.2754 22.2775 13.17L14.5 8.72475V3.375C14.5 2.57935 14.1839 1.81629 13.6213 1.25368C13.0587 0.691071 12.2956 0.375 11.5 0.375L11.35 0.37875Z" fill="#222222"/>
</svg>
