<svg width="21" height="24" viewBox="0 0 21 24" fill="none" xmlns="http://www.w3.org/2000/svg">
<path d="M15.1562 0V4.5L11.9296 4.50062C12.0276 5.5477 12.4304 6.53647 13.0747 7.33345L13.2183 7.50345L12.0942 8.49655C11.1666 7.44657 10.5846 6.11111 10.4411 4.69103C9.8244 4.96948 9.45448 5.54515 9.41064 6.33846L9.40625 6.5L9.406 9.6825L12.5168 12.699C13.1541 13.317 13.5485 14.1378 13.6372 15.0131L13.6515 15.2014L13.6562 15.3911V21.8625C13.6562 22.9991 12.8109 23.9473 11.6742 24.0946L11.5418 24.108L11.3821 24.1124L2.38212 24.0159C1.19301 24.0031 0.227465 23.0696 0.160014 21.8972L0.15625 21.766V15.5431C0.15625 14.5759 0.529854 13.6487 1.1946 12.9529L1.33141 12.8168L4.65625 9.6765V6.636L1.64767 4.09059L1.66083 3.56345C1.75601 1.62697 3.31453 0.0876378 5.24031 0.00361339L5.40625 0L15.1562 0ZM11.3819 19.2645C9.68534 19.2637 8.04908 18.6311 6.78806 17.4586L6.6105 17.2874C5.6128 16.2891 4.2841 15.75 2.90013 15.75C2.47799 15.7498 2.06085 15.7998 1.65662 15.8977L1.65625 21.766C1.65625 22.1477 1.94157 22.4634 2.31144 22.5101L2.39821 22.516L11.3666 22.6128L11.463 22.6104C11.8222 22.5839 12.109 22.3041 12.151 21.952L12.1562 21.8625L12.1565 19.2206C11.9004 19.2499 11.6418 19.2646 11.3819 19.2645ZM10.4058 1.5H5.40625C4.3408 1.5 3.44297 2.24264 3.21368 3.23125L3.1876 3.36155L3.17875 3.4215L5.9305 5.7495H7.97275L7.98683 5.67632C8.25042 4.37996 9.14314 3.44183 10.406 3.12092L10.4058 1.5ZM19.6562 3C20.0705 3 20.4062 3.33579 20.4062 3.75C20.4062 4.16421 20.0705 4.5 19.6562 4.5C19.242 4.5 18.9062 4.16421 18.9062 3.75C18.9062 3.33579 19.242 3 19.6562 3ZM17.4062 1.5C17.8205 1.5 18.1562 1.83579 18.1562 2.25C18.1562 2.66421 17.8205 3 17.4062 3C16.992 3 16.6562 2.66421 16.6562 2.25C16.6562 1.83579 16.992 1.5 17.4062 1.5ZM13.6562 1.5H11.9058V3H13.6562V1.5ZM19.6562 0C20.0705 0 20.4062 0.335786 20.4062 0.75C20.4062 1.16421 20.0705 1.5 19.6562 1.5C19.242 1.5 18.9062 1.16421 18.9062 0.75C18.9062 0.335786 19.242 0 19.6562 0ZM12.1562 15.3911C12.1562 14.8331 11.949 14.2969 11.5779 13.885L11.4726 13.7758L7.90625 10.3174L7.906 7.2495H6.15625V10.3233L2.36135 13.9074C2.2337 14.0279 2.12174 14.1619 2.02684 14.3061C2.31588 14.2686 2.60731 14.2499 2.9005 14.25C4.59735 14.25 6.23386 14.8827 7.49377 16.0555L7.67116 16.2268C8.66973 17.2247 9.99877 17.7638 11.3826 17.7645C11.6432 17.7646 11.9019 17.7456 12.1569 17.7079L12.1562 15.3911Z" fill="#222222"/>
</svg>