<svg width="23" height="24" viewBox="0 0 23 24" fill="none" xmlns="http://www.w3.org/2000/svg">
<path d="M18.6562 0.75C19.1487 0.75 19.6363 0.846997 20.0913 1.03545C20.5463 1.22391 20.9597 1.50013 21.3079 1.84835C21.6561 2.19657 21.9323 2.60997 22.1208 3.06494C22.3093 3.51991 22.4062 4.00754 22.4062 4.5C22.4062 9.29175 21.2122 14.3903 19.4062 15.5198V23.25H17.9062V15.5205C16.1333 14.412 14.9498 9.474 14.9078 4.75875L14.9062 4.5L14.91 4.33725C14.9519 3.37181 15.365 2.45983 16.0629 1.79149C16.7609 1.12316 17.6899 0.750056 18.6562 0.75ZM11.9062 0.75V14.3385C13.644 14.7563 14.9062 16.596 14.9062 18.75C14.9062 21.2025 13.269 23.25 11.1562 23.25C9.0435 23.25 7.40625 21.2025 7.40625 18.75C7.40625 16.596 8.6685 14.7555 10.4062 14.3385V0.75H11.9062ZM0.65625 0.75H1.40625C4.75875 0.75 6.60675 5.52375 6.6555 14.6287L6.65625 15.75H2.1555L2.15625 23.25H0.65625V0.75ZM11.1562 15.75C9.95475 15.75 8.90625 17.061 8.90625 18.75C8.90625 20.439 9.95475 21.75 11.1562 21.75C12.3577 21.75 13.4062 20.439 13.4062 18.75C13.4062 17.061 12.3577 15.75 11.1562 15.75ZM2.15625 2.42925V14.25H5.1525L5.13975 13.527L5.1195 12.8153C4.911 6.86775 3.8325 3.46725 2.32425 2.523L2.23425 2.4705L2.15625 2.42925ZM16.41 4.368L16.4062 4.5L16.4078 4.7325C16.4415 7.97325 17.181 11.5823 17.907 13.275V2.3775C17.4893 2.5252 17.1245 2.79284 16.8582 3.14691C16.5919 3.50098 16.436 3.92574 16.41 4.368ZM19.407 2.37825V13.2728C20.1488 11.5403 20.9062 7.8 20.9062 4.5C20.9062 4.03466 20.762 3.58078 20.4934 3.2008C20.2247 2.82083 19.8457 2.53347 19.407 2.37825Z" fill="#222222"/>
</svg>