<svg width="23" height="24" viewBox="0 0 23 24" fill="none" xmlns="http://www.w3.org/2000/svg">
<path d="M11.5 0.75C17.713 0.75 22.75 5.787 22.75 12C22.75 18.213 17.713 23.25 11.5 23.25C5.287 23.25 0.25 18.213 0.25 12C0.25 5.787 5.287 0.75 11.5 0.75ZM11.5 2.25C6.115 2.25 1.75 6.615 1.75 12C1.75 17.385 6.115 21.75 11.5 21.75C16.885 21.75 21.25 17.385 21.25 12C21.25 6.615 16.885 2.25 11.5 2.25ZM13 6C13.9796 6.00127 14.9199 6.38582 15.6196 7.07142C16.3193 7.75701 16.723 8.6892 16.7443 9.6686C16.7655 10.648 16.4027 11.5968 15.7334 12.3121C15.0641 13.0275 14.1414 13.4525 13.1627 13.4963L13 13.5H9.25V18H7.75V6H13ZM13 7.5H9.25V12H13C13.5857 12.0006 14.1485 11.7727 14.5689 11.3649C14.9892 10.9571 15.234 10.4015 15.2512 9.81603C15.2684 9.2306 15.0566 8.66154 14.6609 8.22977C14.2652 7.798 13.7167 7.53755 13.132 7.50375L13 7.5Z" fill="#222222"/>
</svg>