<svg width="19" height="21" viewBox="0 0 19 21" fill="none" xmlns="http://www.w3.org/2000/svg">
<path d="M15.5 17.5C16.241 17.5 16.9587 17.7633 17.5033 18.2568C17.7327 18.4638 18.0357 18.5905 18.3597 18.619L18.5 18.625V20.125L18.329 20.1205C17.6502 20.0868 17.0034 19.8213 16.4967 19.3683C16.2214 19.1266 15.8663 18.9955 15.5 19C15.1235 19 14.7665 19.1313 14.504 19.3683C13.9531 19.8596 13.2396 20.1292 12.5015 20.125C11.7628 20.1296 11.0488 19.8599 10.4975 19.3683C10.2219 19.1265 9.86658 18.9953 9.5 19C9.12275 19 8.765 19.1313 8.50325 19.3683C7.95235 19.8595 7.23888 20.1292 6.50075 20.125C5.7622 20.1297 5.04815 19.8604 4.49675 19.369C4.22148 19.1271 3.86642 18.9957 3.5 19C3.12275 19 2.765 19.1313 2.5025 19.3683C1.99601 19.8211 1.34957 20.0866 0.671 20.1205L0.5 20.125V18.625L0.64025 18.619C0.957519 18.5945 1.25818 18.4673 1.49675 18.2568C2.04773 17.7651 2.76157 17.4954 3.5 17.5C4.241 17.5 4.95875 17.764 5.50325 18.2568C5.76575 18.4938 6.12275 18.6243 6.50075 18.625C6.87725 18.625 7.235 18.4938 7.49675 18.256C8.04781 17.7646 8.76166 17.4952 9.5 17.5C10.241 17.5 10.9587 17.7633 11.5033 18.2568C11.7657 18.4938 12.1227 18.6243 12.5007 18.625C12.8772 18.625 13.235 18.4938 13.4967 18.2568C14.0475 17.7653 14.7618 17.4956 15.5 17.5ZM15.5 13.75C16.241 13.75 16.9587 14.0133 17.5033 14.5068C17.7327 14.7138 18.0357 14.8405 18.3597 14.869L18.5 14.875V16.375L18.329 16.3705C17.6502 16.3368 17.0034 16.0713 16.4967 15.6183C16.2214 15.3766 15.8663 15.2455 15.5 15.25C15.1235 15.25 14.7665 15.3813 14.504 15.6183C13.9531 16.1096 13.2396 16.3792 12.5015 16.375C11.7628 16.3796 11.0488 16.1099 10.4975 15.6183C10.2219 15.3765 9.86658 15.2453 9.5 15.25C9.12275 15.25 8.765 15.3813 8.50325 15.6183C7.95235 16.1095 7.23888 16.3792 6.50075 16.375C5.7622 16.3797 5.04815 16.1104 4.49675 15.619C4.22148 15.3771 3.86642 15.2457 3.5 15.25C3.12275 15.25 2.765 15.3813 2.5025 15.6183C1.99601 16.0711 1.34957 16.3366 0.671 16.3705L0.5 16.375V14.875L0.64025 14.869C0.957519 14.8445 1.25818 14.7173 1.49675 14.5068C2.04773 14.0151 2.76157 13.7455 3.5 13.75C4.241 13.75 4.95875 14.014 5.50325 14.5068C5.76575 14.7438 6.12275 14.8743 6.50075 14.875C6.87725 14.875 7.235 14.7438 7.49675 14.506C8.04781 14.0146 8.76166 13.7452 9.5 13.75C10.241 13.75 10.9587 14.0133 11.5033 14.5068C11.7657 14.7438 12.1227 14.8743 12.5007 14.875C12.8772 14.875 13.235 14.7438 13.4967 14.5068C14.0475 14.0153 14.7618 13.7456 15.5 13.75ZM12.5 0.250004C13.2697 0.250003 14.0099 0.54583 14.5676 1.0763C15.1253 1.60676 15.4578 2.33128 15.4963 3.1L15.5 3.25V4.75H18.5V6.25H15.5V10C16.184 10 16.8485 10.225 17.375 10.6465L17.5033 10.7568C17.7327 10.9638 18.0357 11.0905 18.3597 11.119L18.5 11.125V12.625L18.329 12.6205C17.6502 12.5868 17.0034 12.3213 16.4967 11.8683C16.2214 11.6266 15.8663 11.4955 15.5 11.5C15.1235 11.5 14.7665 11.6313 14.504 11.8683C13.9531 12.3596 13.2396 12.6292 12.5015 12.625C11.7628 12.6296 11.0488 12.3599 10.4975 11.8683C10.2219 11.6265 9.86658 11.4953 9.5 11.5C9.12275 11.5 8.765 11.6313 8.50325 11.8683C7.95235 12.3595 7.23888 12.6292 6.50075 12.625C5.7622 12.6297 5.04815 12.3604 4.49675 11.869C4.22148 11.6271 3.86642 11.4957 3.5 11.5C3.12275 11.5 2.765 11.6313 2.5025 11.8683C1.99601 12.3211 1.34957 12.5866 0.671 12.6205L0.5 12.625V11.125L0.64025 11.119C0.957519 11.0945 1.25818 10.9673 1.49675 10.7568C2.04773 10.2651 2.76157 9.99545 3.5 10C4.241 10 4.95875 10.264 5.50325 10.7568C5.76575 10.9938 6.12275 11.1243 6.50075 11.125C6.87725 11.125 7.235 10.9938 7.49675 10.756C8.00361 10.3029 8.6507 10.0376 9.32975 10.0045L9.5 10V6.25H0.5V4.75H9.5V3.25C9.50174 2.86077 9.35211 2.48609 9.08272 2.20514C8.81332 1.92418 8.44526 1.75895 8.0563 1.74435C7.66733 1.72974 7.28792 1.86691 6.99821 2.12687C6.70851 2.38683 6.5312 2.74923 6.50375 3.1375L6.5 3.25H5C5.00011 2.64069 5.18576 2.04585 5.53225 1.54464C5.87873 1.04342 6.36962 0.659596 6.9396 0.444224C7.50959 0.228852 8.13164 0.192146 8.723 0.33899C9.31435 0.485835 9.84698 0.809267 10.25 1.26625C10.531 0.946365 10.8771 0.690211 11.2652 0.514946C11.6532 0.339681 12.0742 0.24935 12.5 0.250004ZM11 10.3923C11.12 10.4605 11.2347 10.5378 11.3442 10.6225L11.5033 10.7568C11.7657 10.9938 12.1227 11.1243 12.5007 11.125C12.83 11.125 13.1458 11.0245 13.394 10.84L13.4967 10.7568C13.6512 10.6165 13.82 10.4943 13.9993 10.3923V6.25H10.9993L11 10.3923ZM12.5 1.75C12.1216 1.74988 11.7571 1.89281 11.4796 2.15013C11.2021 2.40744 11.0321 2.76014 11.0037 3.1375L11 3.25V4.75H14V3.25C14 2.85218 13.842 2.47065 13.5607 2.18934C13.2794 1.90804 12.8978 1.75 12.5 1.75Z" fill="#222222"/>
</svg>