<svg width="22" height="24" viewBox="0 0 22 24" fill="none" xmlns="http://www.w3.org/2000/svg">
<path d="M13.4062 0.750018V2.25002H2.15625V12.75H3.10875C3.3149 12.0078 3.67095 11.3157 4.15493 10.7164C4.63891 10.1171 5.24056 9.6233 5.92275 9.26552C5.51718 8.77124 5.26036 8.17192 5.18219 7.53734C5.10401 6.90277 5.2077 6.25904 5.48118 5.68111C5.75466 5.10317 6.18667 4.61481 6.72693 4.27288C7.26719 3.93094 7.89346 3.74951 8.53284 3.74969C9.17221 3.74987 9.79838 3.93167 10.3384 4.27392C10.8785 4.61616 11.3102 5.10477 11.5834 5.68286C11.8565 6.26095 11.9598 6.90474 11.8813 7.53927C11.8028 8.1738 11.5456 8.77297 11.1397 9.26702C11.8219 9.62445 12.4236 10.1179 12.9076 10.717C13.3916 11.3161 13.7476 12.008 13.9537 12.75H20.1562V9.02327H21.6562V21.75C21.6562 22.5405 20.9062 23.25 20.1562 23.25H2.15625C1.36575 23.25 0.65625 22.5 0.65625 21.75V2.25002C0.65625 1.45952 1.40625 0.750018 2.15625 0.750018H13.4062ZM2.15625 14.25V21.75H20.1562V14.25H2.15625ZM8.53125 5.25002C8.11119 5.24977 7.70322 5.39058 7.37274 5.64988C7.04227 5.90918 6.80843 6.27193 6.70873 6.67999C6.60903 7.08804 6.64924 7.51776 6.82291 7.90023C6.99658 8.2827 7.29366 8.59578 7.6665 8.78927L7.78125 8.84402V10.1933C7.09079 10.3214 6.44439 10.6234 5.90308 11.0708C5.36176 11.5181 4.9434 12.0961 4.6875 12.75H12.375C12.1298 12.123 11.7352 11.5654 11.2254 11.1257C10.7157 10.686 10.1062 10.3775 9.45 10.227L9.282 10.1925V8.84252C9.67628 8.66984 9.99913 8.36676 10.1964 7.98418C10.3936 7.60159 10.4532 7.1628 10.3651 6.74147C10.2771 6.32014 10.0468 5.94193 9.71283 5.67035C9.37889 5.39877 8.96168 5.25035 8.53125 5.25002ZM20.1525 0.749268L21.6525 0.750768C21.651 2.29577 21.2985 3.25727 20.328 4.81727L19.764 5.70452C18.9683 6.98102 18.684 7.71677 18.6585 8.82227L18.6562 9.00002H17.1562C17.1562 7.38002 17.5425 6.40052 18.6217 4.70327L19.0433 4.04327C19.839 2.76752 20.1233 2.03177 20.1502 0.927018L20.1525 0.749268ZM16.4025 0.749268L17.9025 0.750768C17.901 2.29577 17.5485 3.25727 16.578 4.81727L16.014 5.70452C15.2182 6.98102 14.934 7.71677 14.9085 8.82227L14.9062 9.00002H13.4062C13.4062 7.38002 13.7925 6.40052 14.8717 4.70327L15.2933 4.04327C16.089 2.76752 16.3733 2.03177 16.4003 0.927018L16.4025 0.749268Z" fill="#222222"/>
</svg>