<svg width="21" height="22" viewBox="0 0 21 22" fill="none" xmlns="http://www.w3.org/2000/svg">
<path d="M15.75 10.25C15.75 10.0511 15.829 9.86032 15.9697 9.71967C16.1103 9.57902 16.3011 9.5 16.5 9.5C16.6989 9.5 16.8897 9.57902 17.0303 9.71967C17.171 9.86032 17.25 10.0511 17.25 10.25C17.25 10.4489 17.171 10.6397 17.0303 10.7803C16.8897 10.921 16.6989 11 16.5 11C16.3011 11 16.1103 10.921 15.9697 10.7803C15.829 10.6397 15.75 10.4489 15.75 10.25ZM10.5 6.5C10.3011 6.5 10.1103 6.57902 9.96967 6.71967C9.82902 6.86032 9.75 7.05109 9.75 7.25C9.75 7.44891 9.82902 7.63968 9.96967 7.78033C10.1103 7.92098 10.3011 8 10.5 8C10.6989 8 10.8897 7.92098 11.0303 7.78033C11.171 7.63968 11.25 7.44891 11.25 7.25C11.25 7.05109 11.171 6.86032 11.0303 6.71967C10.8897 6.57902 10.6989 6.5 10.5 6.5ZM4.5 8C4.69891 8 4.88968 7.92098 5.03033 7.78033C5.17098 7.63968 5.25 7.44891 5.25 7.25C5.25 7.05109 5.17098 6.86032 5.03033 6.71967C4.88968 6.57902 4.69891 6.5 4.5 6.5C4.30109 6.5 4.11032 6.57902 3.96967 6.71967C3.82902 6.86032 3.75 7.05109 3.75 7.25C3.75 7.44891 3.82902 7.63968 3.96967 7.78033C4.11032 7.92098 4.30109 8 4.5 8ZM21 5V14C21 18.1355 17.6355 21.5 13.5 21.5C11.0535 21.5 8.88375 20.3172 7.5135 18.5L7.515 18.4993L7.5 18.5C3.3645 18.5 0 15.1355 0 11V2C0 1.17275 0.67275 0.5 1.5 0.5H13.5C14.3273 0.5 15 1.17275 15 2V3.5H19.5C20.3272 3.5 21 4.17275 21 5ZM7.5 17C10.8082 17 13.5 14.3082 13.5 11V2H1.49925L1.5 11C1.5 14.3082 4.19175 17 7.5 17ZM19.5 5H15V11C14.9993 12.3282 14.6433 13.6321 13.9688 14.7762C15.1485 14.9008 16.2383 15.4993 17.0753 16.4975L15.9247 17.4613C15.27 16.6798 14.4127 16.25 13.509 16.25C13.239 16.25 12.9773 16.2995 12.7208 16.3738C11.7677 17.2996 10.5856 17.9553 9.2955 18.2735C10.415 19.3801 11.9259 20.0005 13.5 20C16.8083 20 19.5 17.3083 19.5 14V5ZM7.50825 12.5C6.597 12.5 5.7345 12.0635 5.0775 11.2715L3.9225 12.2285C4.86975 13.37 6.1425 14 7.50825 14C8.86275 14 10.1295 13.3798 11.0745 12.2525L9.9255 11.2887C9.27 12.0703 8.41275 12.5 7.50825 12.5Z" fill="#222222"/>
</svg>