<svg width="24" height="20" viewBox="0 0 24 20" fill="none" xmlns="http://www.w3.org/2000/svg">
<path d="M6.90625 19.75V18.25H8.40625V16.75H4.65625C3.6899 16.7499 2.76088 16.3768 2.06292 15.7085C1.36496 15.0402 0.951939 14.1282 0.91 13.1627L0.90625 13V4C0.906306 3.03365 1.27941 2.10463 1.94774 1.40667C2.61608 0.708705 3.52806 0.29569 4.4935 0.25375L4.65625 0.25H19.6562C20.6226 0.250056 21.5516 0.623156 22.2496 1.29149C22.9475 1.95983 23.3606 2.87181 23.4025 3.83725L23.4062 4V13C23.4062 13.9663 23.0331 14.8954 22.3648 15.5933C21.6964 16.2913 20.7844 16.7043 19.819 16.7463L19.6562 16.75H15.9062V18.25H17.4062V19.75H6.90625ZM14.4062 16.75H9.90625V18.25H14.4062V16.75ZM19.6562 1.75H4.65625C4.08234 1.74997 3.53011 1.96924 3.11255 2.36296C2.69499 2.75668 2.44367 3.29508 2.41 3.868L2.40625 4V13C2.40622 13.5739 2.62549 14.1261 3.01921 14.5437C3.41293 14.9613 3.95133 15.2126 4.52425 15.2463L4.65625 15.25H19.6562C20.2302 15.25 20.7824 15.0308 21.1999 14.637C21.6175 14.2433 21.8688 13.7049 21.9025 13.132L21.9062 13V4C21.9063 3.42609 21.687 2.87386 21.2933 2.4563C20.8996 2.03874 20.3612 1.78742 19.7882 1.75375L19.6562 1.75Z" fill="#222222"/>
</svg>