<svg width="25" height="18" viewBox="0 0 25 18" fill="none" xmlns="http://www.w3.org/2000/svg">
<path d="M12.4999 12.2499C14.0186 12.2499 15.2499 13.4811 15.2499 14.9999C15.2499 16.5187 14.0186 17.7499 12.4999 17.7499C10.9811 17.7499 9.74985 16.5187 9.74985 14.9999C9.74985 13.4811 10.9811 12.2499 12.4999 12.2499ZM12.4999 13.7499C11.8095 13.7499 11.2498 14.3095 11.2498 14.9999C11.2498 15.6903 11.8095 16.2499 12.4999 16.2499C13.1902 16.2499 13.7499 15.6903 13.7499 14.9999C13.7499 14.3095 13.1902 13.7499 12.4999 13.7499ZM12.4999 8.24998C15.1375 8.24998 17.4218 9.76282 18.5324 11.9681L17.3966 13.1027C16.636 11.1409 14.7304 9.74998 12.4999 9.74998C10.2695 9.74998 8.3639 11.1409 7.60324 13.1027L6.46788 11.9674C7.57856 9.76248 9.86261 8.24998 12.4999 8.24998ZM12.5 4.25008C16.2354 4.25008 19.5257 6.15524 21.4524 9.04687L20.3671 10.1324C18.7361 7.50195 15.8226 5.75008 12.5 5.75008C9.17736 5.75008 6.26389 7.50195 4.63288 10.1324L3.54756 9.04687C5.47427 6.15524 8.76465 4.25008 12.5 4.25008ZM12.4999 0.249878C17.3381 0.249878 21.6324 2.57941 24.322 6.17803L23.2492 7.25127C20.8427 3.91871 16.9245 1.74988 12.4999 1.74988C8.07549 1.74988 4.15761 3.91838 1.75108 7.25052L0.678223 6.17728C3.36795 2.57908 7.66189 0.249878 12.4999 0.249878Z" fill="#222222"/>
</svg>