<svg width="24" height="20" viewBox="0 0 24 20" fill="none" xmlns="http://www.w3.org/2000/svg">
<path d="M20.4061 0.25C20.7845 0.24988 21.149 0.392805 21.4265 0.650123C21.704 0.907441 21.8739 1.26013 21.9023 1.6375L21.9061 1.75L21.9053 12.862L23.7278 17.7235C23.8531 18.0573 23.8555 18.4248 23.7344 18.7602C23.6133 19.0955 23.3767 19.3768 23.0671 19.5535L22.9583 19.609L22.8503 19.654C22.7242 19.7015 22.5923 19.7318 22.4581 19.744L22.3238 19.75H1.98832C1.75729 19.75 1.52939 19.6966 1.32237 19.5941C1.11536 19.4915 0.934834 19.3425 0.794874 19.1587C0.654914 18.9749 0.559302 18.7613 0.515495 18.5344C0.471688 18.3076 0.480868 18.0737 0.542322 17.851L0.583572 17.7235L2.40607 12.8643V1.75C2.40606 1.39155 2.53441 1.04494 2.76788 0.772943C3.00135 0.50095 3.32451 0.321556 3.67882 0.26725L3.79432 0.25375L3.90607 0.25H20.4061ZM20.6356 13.75H3.67507L1.98832 18.25H22.3238L20.6356 13.75ZM14.4061 15.25V16.75H9.90607V15.25H14.4061ZM20.4061 1.75H3.90607L3.90532 12.25H20.4053L20.4061 1.75ZM12.1561 3.25C12.355 3.25 12.5458 3.32902 12.6864 3.46967C12.8271 3.61032 12.9061 3.80109 12.9061 4C12.9061 4.19891 12.8271 4.38968 12.6864 4.53033C12.5458 4.67098 12.355 4.75 12.1561 4.75C11.9572 4.75 11.7664 4.67098 11.6257 4.53033C11.4851 4.38968 11.4061 4.19891 11.4061 4C11.4061 3.80109 11.4851 3.61032 11.6257 3.46967C11.7664 3.32902 11.9572 3.25 12.1561 3.25Z" fill="#222222"/>
</svg>